<?xml version="1.0" encoding="UTF-8"?>
<svg id="Capa_2" data-name="Capa 2" xmlns="http://www.w3.org/2000/svg" xmlns:xlink="http://www.w3.org/1999/xlink" viewBox="0 0 405.22 290.11">
  <defs>
    <style>
      .cls-1 {
        stroke: #a5a7aa;
      }

      .cls-1, .cls-2, .cls-3, .cls-4, .cls-5, .cls-6, .cls-7, .cls-8 {
        fill: none;
      }

      .cls-1, .cls-2, .cls-8 {
        stroke-miterlimit: 22.93;
        stroke-width: .22px;
      }

      .cls-9 {
        fill: #6b3188;
      }

      .cls-9, .cls-10, .cls-11, .cls-12, .cls-13, .cls-14, .cls-4, .cls-15, .cls-5, .cls-16, .cls-17, .cls-18, .cls-19, .cls-20, .cls-21, .cls-22, .cls-23, .cls-24, .cls-25 {
        stroke-width: 0px;
      }

      .cls-26 {
        opacity: .5;
      }

      .cls-10 {
        fill: url(#Degradado_sin_nombre_3);
      }

      .cls-2 {
        stroke: #919396;
      }

      .cls-27 {
        clip-path: url(#clippath-2);
      }

      .cls-3, .cls-6 {
        stroke: #1d1d1b;
        stroke-width: .75px;
      }

      .cls-3, .cls-6, .cls-7 {
        stroke-miterlimit: 10;
      }

      .cls-11 {
        fill: #4f378b;
      }

      .cls-28, .cls-13, .cls-29, .cls-23 {
        fill: #3b0e1d;
      }

      .cls-28, .cls-29, .cls-30 {
        font-family: CenturyGothic, 'Century Gothic';
      }

      .cls-28, .cls-30 {
        font-size: 3.74px;
      }

      .cls-12, .cls-13, .cls-15, .cls-16, .cls-18, .cls-20, .cls-24 {
        fill-rule: evenodd;
      }

      .cls-12, .cls-14, .cls-30 {
        fill: #15263a;
      }

      .cls-15 {
        fill: #e7e6e6;
      }

      .cls-31 {
        clip-path: url(#clippath-1);
      }

      .cls-5 {
        clip-rule: evenodd;
      }

      .cls-6 {
        stroke-dasharray: 0 0 4.96 4.96;
      }

      .cls-16 {
        fill: #aaab18;
      }

      .cls-17, .cls-18 {
        fill: #fff;
      }

      .cls-29 {
        font-size: 4.53px;
        letter-spacing: .4em;
      }

      .cls-19 {
        fill: #393938;
      }

      .cls-32 {
        clip-path: url(#clippath);
      }

      .cls-33 {
        clip-path: url(#clippath-3);
      }

      .cls-20 {
        fill: #9e9d9c;
      }

      .cls-21 {
        fill: url(#Degradado_sin_nombre_2);
      }

      .cls-22 {
        fill: #444252;
      }

      .cls-24 {
        fill: #00883d;
      }

      .cls-7 {
        stroke: #6c3188;
        stroke-width: .22px;
      }

      .cls-8 {
        stroke: #cfd1d2;
      }

      .cls-25 {
        fill: #40a047;
      }
    </style>
    <clipPath id="clippath">
      <rect class="cls-4" x="294.1" y="247.37" width="111.12" height="42.73"/>
    </clipPath>
    <clipPath id="clippath-1">
      <rect class="cls-4" x="294.1" y="247.37" width="111.12" height="42.73"/>
    </clipPath>
    <clipPath id="clippath-2">
      <polygon class="cls-5" points="356.77 1.44 356.77 38.94 363.56 35.36 363.56 1.44 356.77 1.44"/>
    </clipPath>
    <linearGradient id="Degradado_sin_nombre_3" data-name="Degradado sin nombre 3" x1="-2646.24" y1="-149.04" x2="-2646.16" y2="-149.04" gradientTransform="translate(2780.05 -234087.39) rotate(-90) scale(88.47 16.24)" gradientUnits="userSpaceOnUse">
      <stop offset="0" stop-color="#fff"/>
      <stop offset=".6" stop-color="#efeff0"/>
      <stop offset="1" stop-color="#e4e5e6"/>
    </linearGradient>
    <clipPath id="clippath-3">
      <polygon class="cls-5" points="364.94 6.78 364.88 34.45 371.59 31 371.59 10.22 364.94 6.78"/>
    </clipPath>
    <linearGradient id="Degradado_sin_nombre_2" data-name="Degradado sin nombre 2" x1="-2651.08" y1="-148.35" x2="-2650.66" y2="-148.35" gradientTransform="translate(2752.24 -173015.05) rotate(-90) scale(65.28 16.07)" gradientUnits="userSpaceOnUse">
      <stop offset="0" stop-color="#fff"/>
      <stop offset=".54" stop-color="#f4f4f4"/>
      <stop offset=".73" stop-color="#e4e5e6"/>
      <stop offset="1" stop-color="#e4e5e6"/>
    </linearGradient>
  </defs>
  <g id="Capa_1-2" data-name="Capa 1">
    <g>
      <g>
        <path class="cls-13" d="m242.22,173.34l-33.84-11.72-33.84,11.72,2.1-12.3c3.25.79,6.68,1.01,9.99.91,11.65-.36,23.91-4.8,33.98-10.45,1.32-.74,2.63-1.52,3.93-2.33l14.5,5.54,3.18,18.63h0Zm-62.37-19.44c2.49.51,5.08.6,7.59.39,6.89-.59,14.01-2.71,20.39-5.28,2.53-1.02,5.03-2.14,7.47-3.36l-6.93-2.65-28.53,10.9Z"/>
        <path class="cls-13" d="m235.98,152.19l-10.05-3.91c2.98-1.94,5.85-4.06,8.56-6.34l1.49,10.26h0Zm-19.01-7.4c1.58-.83,3.13-1.7,4.66-2.61,3.1-1.85,6.22-3.95,9.01-6.29l-22.26-10.1-25.44,11.54-2.16,14.86,27.6-10.74,8.59,3.34Z"/>
        <polygon class="cls-13" points="230.45 133.83 208.38 123.91 186.31 133.83 187.89 121.76 208.38 111.23 228.87 121.76 230.45 133.83"/>
        <path class="cls-13" d="m225.81,118.32l-17.43-9.29-17.43,9.29,1.08-9.79c.94-.67,3.33-4.1,3.85-5.14,1.22-2.43,2.76-5.48,2.76-5.48l9.74-5.83,9.74,5.83s1.54,3.06,2.76,5.48c.52,1.04,2.91,4.46,3.85,5.14l1.08,9.79Z"/>
        <polygon class="cls-13" points="179.89 173.11 208.38 163.13 236.87 173.11 179.89 173.11"/>
        <path class="cls-13" d="m244.15,113.32l-.74-10.54s1.44.52,3.01,1.82l.42,1.47c.15.63-.21,2-.4,2.59-.51,1.55-1.33,3.14-2.28,4.66Z"/>
        <path class="cls-13" d="m190.26,109.83c-.08.05-.15.1-.23.16-3.9,2.56-14.71,10.31-21.06,21.46-7.85,13.79,2.73,24.98,18.54,23.62,15.81-1.36,35.71-11.19,45.27-20.01.12-.11.23-.22.34-.33h0s0,0,0,0c.06-.06.12-.12.18-.19.68-.61,2.98-2.44,2.98-2.44l-4.5-6.58c3.98-1.93,7.46-4.21,10.11-7.62,6.69-8.6,5.71-12.06,5.71-12.06,8.8,8.02-.68,29.53-4.42,37.46l-4.22-6.59c-5.05,5.1-11.41,9.96-18.76,14.09-23.38,13.13-47.95,13.9-54.88,1.72-6.43-11.31,4.61-29.81,24.94-42.91l-.02.21Z"/>
        <text class="cls-29" transform="translate(169.57 195.94)"><tspan x="0" y="0">GRUPO EMPRESARIAL</tspan></text>
        <g>
          <path class="cls-13" d="m164.02,190.28v-13.23h3.66v13.23h-3.66Zm10.43,0h-3.35v-13.23h3.49s5.72,7.89,5.99,8.47c-.03-.61,0-8.47,0-8.47h3.51v13.23h-3.48s-5.91-7.9-6.17-8.47m12.99,8.47v-13.23h2.77c2.06,0,3.52.1,4.38.29.86.19,1.61.51,2.25.97.84.59,1.48,1.34,1.91,2.25.44.91.65,1.96.65,3.12s-.22,2.21-.65,3.12c-.43.91-1.07,1.66-1.91,2.25-.64.44-1.37.76-2.2.95-.82.19-2.1.28-3.83.28h-3.38Zm3.59-2.96h.61c1.42,0,2.46-.29,3.12-.87.65-.58.98-1.5.98-2.77s-.33-2.19-.98-2.78c-.65-.59-1.69-.89-3.12-.89h-.61v7.31h0Zm11.15,2.96v-13.23h8.14v2.91h-4.61v2.3h4.35v2.83h-4.35v2.24h4.61v2.96h-8.14Zm12.27-4.28c.54.61,1.07,1.06,1.59,1.36.52.3,1.04.45,1.56.45.48,0,.88-.13,1.19-.39.31-.26.47-.59.47-.98,0-.44-.13-.78-.4-1.02-.27-.24-.88-.48-1.82-.74-1.3-.35-2.22-.81-2.76-1.36-.54-.56-.81-1.33-.81-2.3,0-1.27.42-2.3,1.28-3.1.85-.8,1.95-1.2,3.31-1.2.73,0,1.43.1,2.08.29.66.2,1.28.49,1.87.89l-1.14,2.59c-.41-.35-.83-.61-1.27-.79-.43-.18-.86-.27-1.28-.27s-.79.11-1.06.31c-.27.21-.41.48-.41.8s.12.6.36.8c.24.2.7.39,1.38.57l.16.05c1.48.4,2.45.83,2.91,1.31.32.32.55.72.72,1.17.16.46.24.96.24,1.51,0,1.4-.46,2.53-1.39,3.38-.93.85-2.16,1.28-3.7,1.28-.93,0-1.77-.16-2.53-.47-.76-.31-1.49-.8-2.19-1.47l1.63-2.68h0Zm20.61-8.44v3.94c-.5-.55-.99-.95-1.48-1.21-.49-.26-1.02-.39-1.58-.39-1.04,0-1.88.35-2.53,1.06-.64.71-.97,1.63-.97,2.77,0,1.06.33,1.94.99,2.64.66.7,1.49,1.05,2.51,1.05.56,0,1.09-.13,1.58-.38.49-.25.99-.66,1.48-1.21v3.94c-.57.28-1.15.49-1.71.63-.57.14-1.14.21-1.73.21-.73,0-1.39-.09-2.01-.26-.61-.17-1.18-.43-1.69-.78-.99-.66-1.75-1.5-2.27-2.5-.52-1.01-.78-2.14-.78-3.4,0-1.01.16-1.93.5-2.76.33-.83.83-1.58,1.49-2.25.63-.64,1.34-1.13,2.13-1.45.79-.32,1.67-.48,2.63-.48.58,0,1.16.07,1.73.21.57.14,1.14.35,1.71.63h0Zm16.19,6.13c0,.95-.18,1.84-.53,2.67-.35.83-.86,1.58-1.53,2.23-.68.65-1.45,1.15-2.32,1.51-.87.35-1.77.53-2.71.53s-1.86-.18-2.73-.53c-.87-.35-1.63-.85-2.29-1.51-.68-.66-1.2-1.4-1.56-2.24-.35-.84-.53-1.72-.53-2.66s.18-1.84.53-2.67c.36-.83.87-1.58,1.56-2.24.66-.65,1.42-1.15,2.29-1.51.87-.35,1.78-.53,2.73-.53s1.85.18,2.73.53c.87.35,1.64.85,2.31,1.51.67.65,1.17,1.39,1.53,2.23.35.84.53,1.73.53,2.67h0Zm-7.1,3.89c1,0,1.83-.37,2.49-1.1.66-.74.98-1.67.98-2.79s-.33-2.03-1-2.78c-.67-.74-1.49-1.11-2.48-1.11s-1.83.37-2.49,1.11c-.66.74-.99,1.67-.99,2.78s.32,2.06.97,2.79c.65.73,1.48,1.1,2.51,1.1Z"/>
          <path class="cls-23" d="m253.62,173.64c.37,0,.73.07,1.06.21.33.14.62.34.88.6.24.25.43.53.56.86.13.32.19.66.19,1.02s-.07.72-.2,1.05-.33.61-.59.86c-.26.25-.55.44-.88.58-.33.13-.66.2-1.01.2s-.71-.07-1.03-.21c-.33-.14-.62-.34-.87-.61-.25-.26-.44-.55-.58-.87s-.2-.65-.2-1,.07-.71.21-1.04c.14-.33.34-.63.61-.89.25-.25.54-.44.85-.57.32-.13.65-.19,1.01-.19Zm0,.49c-.3,0-.58.05-.84.16-.26.11-.49.26-.7.46-.22.22-.38.46-.49.73-.11.27-.17.56-.17.85s.05.56.16.82.26.49.47.7c.21.22.45.38.72.5.27.11.55.17.85.17s.57-.05.84-.16c.27-.11.51-.26.72-.47.21-.2.37-.44.48-.71.11-.27.17-.55.17-.85s-.05-.58-.16-.84c-.11-.26-.26-.49-.46-.7-.21-.22-.45-.38-.72-.5-.27-.11-.55-.17-.86-.17Zm-1.13.67h1.18c.42,0,.73.07.95.22.22.14.33.36.33.64,0,.19-.06.36-.17.5-.11.14-.26.24-.46.29l.65,1.3h-.89l-.55-1.17h-.23v1.17h-.81v-2.94Zm.81.51v.79h.29c.18,0,.31-.03.4-.1.09-.06.13-.16.13-.29,0-.14-.05-.24-.14-.31s-.24-.1-.44-.1h-.24Z"/>
        </g>
      </g>
      <g class="cls-26">
        <g>
          <line class="cls-3" x1="144.1" y1="97.32" x2="142.21" y2="95.68"/>
          <line class="cls-6" x1="138.46" y1="92.44" x2="87.82" y2="48.64"/>
          <line class="cls-3" x1="85.95" y1="47.02" x2="84.06" y2="45.39"/>
        </g>
        <g>
          <line class="cls-3" x1="334" y1="250.53" x2="332.11" y2="248.89"/>
          <line class="cls-6" x1="328.36" y1="245.65" x2="277.72" y2="201.85"/>
          <line class="cls-3" x1="275.84" y1="200.23" x2="273.95" y2="198.6"/>
        </g>
      </g>
      <g class="cls-26">
        <g>
          <line class="cls-3" x1="146.19" y1="201.17" x2="144.21" y2="202.68"/>
          <line class="cls-6" x1="140.26" y1="205.69" x2="87.05" y2="246.31"/>
          <line class="cls-3" x1="85.08" y1="247.82" x2="83.09" y2="249.34"/>
        </g>
        <g>
          <line class="cls-3" x1="334.97" y1="46.58" x2="332.98" y2="48.09"/>
          <line class="cls-6" x1="329.04" y1="51.1" x2="275.82" y2="91.73"/>
          <line class="cls-3" x1="273.85" y1="93.23" x2="271.86" y2="94.75"/>
        </g>
      </g>
      <g>
        <path class="cls-14" d="m131.02,146.02h-16.84c0,51.64,41.86,93.49,93.49,93.49v-16.84c-42.34,0-76.66-34.32-76.66-76.66Z"/>
        <path class="cls-9" d="m207.68,222.68v16.84c51.64,0,93.49-41.86,93.49-93.49h-16.84c0,42.34-34.32,76.66-76.66,76.66Z"/>
        <path class="cls-23" d="m207.68,69.36v-16.84c-51.64,0-93.49,41.86-93.49,93.49h16.84c0-42.34,34.32-76.66,76.66-76.66Z"/>
        <path class="cls-22" d="m207.68,52.52v16.84c42.34,0,76.66,34.32,76.66,76.66h16.84c0-51.64-41.86-93.49-93.49-93.49Z"/>
      </g>
      <g>
        <text class="cls-30" transform="translate(64.4 273.89)"><tspan x="0" y="0" xml:space="preserve">DISEÑOS Y ESTUDIOS  SAS</tspan></text>
        <path class="cls-12" d="m51.95,268.43v-10.59h2.93v10.59h-2.93Zm8.34,0h-2.68v-10.59h2.79s4.58,6.31,4.79,6.77c-.02-.49,0-6.77,0-6.77h2.81v10.59h-2.78s-4.73-6.32-4.94-6.77m10.39,6.77v-10.59h2.22c1.65,0,2.82.08,3.5.23.69.15,1.29.41,1.8.77.67.47,1.18,1.07,1.53,1.8.35.73.52,1.56.52,2.5s-.17,1.77-.52,2.5c-.35.73-.86,1.33-1.53,1.8-.51.36-1.1.61-1.76.76-.66.15-1.68.23-3.06.23h-2.7Zm2.87-2.37h.49c1.14,0,1.97-.23,2.49-.7.52-.46.78-1.2.78-2.22s-.26-1.75-.78-2.23c-.52-.47-1.36-.71-2.49-.71h-.49v5.85h0Zm8.92,2.37v-10.59h6.51v2.32h-3.69v1.84h3.48v2.27h-3.48v1.79h3.69v2.37h-6.51Zm9.82-3.42c.43.49.86.85,1.27,1.09.42.24.83.36,1.25.36.39,0,.71-.1.95-.31.25-.21.37-.47.37-.79,0-.35-.11-.62-.32-.81-.22-.19-.7-.39-1.46-.59-1.04-.28-1.78-.64-2.21-1.09-.43-.45-.65-1.06-.65-1.84,0-1.01.34-1.84,1.02-2.48.68-.64,1.56-.96,2.65-.96.59,0,1.14.08,1.67.23.53.16,1.02.39,1.49.71l-.91,2.07c-.33-.28-.67-.49-1.01-.63-.34-.14-.69-.21-1.03-.21s-.63.08-.85.25c-.22.17-.33.38-.33.64s.09.48.29.64c.19.16.56.31,1.11.45l.13.04c1.18.32,1.96.67,2.33,1.05.25.26.44.57.58.94.13.37.2.77.2,1.21,0,1.12-.37,2.03-1.11,2.71-.74.68-1.73,1.02-2.96,1.02-.74,0-1.41-.13-2.02-.37-.61-.25-1.19-.64-1.75-1.18l1.31-2.15h0Zm16.49-6.75v3.15c-.4-.44-.79-.76-1.19-.96-.39-.2-.82-.31-1.27-.31-.83,0-1.51.28-2.02.85-.52.56-.77,1.3-.77,2.21,0,.85.26,1.55.79,2.11.53.56,1.19.84,2.01.84.45,0,.87-.1,1.27-.31.39-.2.79-.53,1.19-.97v3.15c-.46.22-.92.39-1.37.5-.46.11-.91.17-1.38.17-.58,0-1.12-.07-1.61-.2-.49-.14-.94-.35-1.35-.63-.79-.53-1.4-1.2-1.81-2-.42-.81-.62-1.71-.62-2.72,0-.81.13-1.54.4-2.21.26-.66.66-1.26,1.19-1.8.5-.52,1.07-.9,1.7-1.16.63-.25,1.33-.38,2.11-.38.47,0,.92.05,1.38.17.45.11.91.28,1.37.5h0Zm12.95,4.9c0,.76-.14,1.48-.42,2.14-.28.67-.69,1.26-1.23,1.79-.54.52-1.16.92-1.86,1.2-.7.28-1.42.42-2.17.42s-1.49-.14-2.18-.42c-.69-.28-1.3-.68-1.83-1.2-.55-.53-.96-1.12-1.25-1.79-.28-.67-.42-1.38-.42-2.13s.14-1.47.42-2.14c.29-.67.7-1.26,1.25-1.79.53-.52,1.14-.92,1.83-1.2.69-.28,1.42-.42,2.18-.42s1.48.14,2.18.42c.7.28,1.31.68,1.85,1.2.53.52.94,1.12,1.22,1.79.28.67.42,1.38.42,2.14h0Zm-5.68,3.11c.8,0,1.47-.29,1.99-.88.53-.59.79-1.33.79-2.23s-.27-1.63-.8-2.22c-.53-.59-1.19-.89-1.98-.89s-1.47.3-1.99.89c-.53.59-.79,1.33-.79,2.22s.26,1.65.78,2.23c.52.58,1.19.88,2,.88Z"/>
        <path class="cls-12" d="m41.94,277.15l-14.41-4.99-14.41,4.99.89-5.24c1.38.33,2.85.43,4.25.39,4.96-.16,10.18-2.04,14.47-4.45.56-.32,1.12-.65,1.67-.99l6.18,2.36,1.35,7.93h0Zm-26.56-8.28c1.06.22,2.16.26,3.23.17,2.93-.25,5.96-1.15,8.68-2.25,1.08-.43,2.14-.91,3.18-1.43l-2.95-1.13-12.15,4.64Z"/>
        <path class="cls-12" d="m39.29,268.14l-4.28-1.67c1.27-.83,2.49-1.73,3.65-2.7l.64,4.37h0Zm-8.09-3.15c.67-.35,1.33-.72,1.98-1.11,1.32-.79,2.65-1.68,3.84-2.68l-9.48-4.3-10.83,4.92-.92,6.33,11.75-4.58,3.66,1.42Z"/>
        <polygon class="cls-12" points="36.93 260.32 27.53 256.1 18.13 260.32 18.81 255.18 27.53 250.7 36.26 255.18 36.93 260.32"/>
        <path class="cls-12" d="m34.95,253.72l-7.42-3.95-7.42,3.95.46-4.17c.4-.29,1.42-1.75,1.64-2.19.52-1.03,1.17-2.34,1.17-2.34l4.15-2.48,4.15,2.48s.66,1.3,1.17,2.34c.22.44,1.24,1.9,1.64,2.19l.46,4.17Z"/>
        <polygon class="cls-12" points="15.4 277.05 27.53 272.8 39.67 277.05 15.4 277.05"/>
        <path class="cls-12" d="m42.76,251.59l-.32-4.49s.61.22,1.28.78l.18.63c.06.27-.09.85-.17,1.1-.22.66-.57,1.34-.97,1.99Z"/>
        <path class="cls-12" d="m19.81,250.1s-.06.04-.1.07c-1.66,1.09-6.26,4.39-8.97,9.14-3.34,5.87,1.16,10.64,7.89,10.06,6.73-.58,15.21-4.77,19.28-8.52.05-.05.1-.09.15-.14h0s0,0,0,0c.03-.03.05-.05.08-.08.29-.26,1.27-1.04,1.27-1.04l-1.92-2.8c1.7-.82,3.18-1.79,4.31-3.24,2.85-3.66,2.43-5.13,2.43-5.13,3.75,3.41-.29,12.57-1.88,15.95l-1.8-2.8c-2.15,2.17-4.86,4.24-7.99,6-9.96,5.59-20.42,5.92-23.37.73-2.74-4.82,1.96-12.69,10.62-18.27v.09Z"/>
        <path class="cls-14" d="m123.74,255.15c.3,0,.58.06.85.17.27.11.5.27.71.48.19.2.34.43.45.69s.15.53.15.82-.05.58-.16.84c-.11.26-.27.49-.47.69-.21.2-.45.36-.71.46s-.53.16-.81.16-.57-.06-.83-.17c-.26-.11-.5-.27-.7-.49-.2-.21-.36-.44-.46-.7-.11-.26-.16-.52-.16-.8s.06-.57.17-.84c.11-.27.28-.5.49-.71.2-.2.43-.35.68-.45.25-.1.52-.15.81-.15Zm0,.4c-.24,0-.46.04-.67.13-.21.08-.4.21-.56.37-.17.17-.31.37-.4.58-.09.22-.14.45-.14.69s.04.45.13.66c.08.21.21.39.38.56.17.17.36.31.58.4s.44.14.68.14.46-.04.67-.13.41-.21.58-.38c.17-.16.3-.35.39-.57.09-.21.13-.44.13-.68s-.04-.46-.13-.67c-.08-.21-.21-.4-.37-.56-.17-.17-.36-.31-.58-.4-.21-.09-.44-.14-.69-.14Zm-.91.53h.95c.33,0,.59.06.76.17.17.12.26.29.26.51,0,.16-.04.29-.13.4-.09.11-.21.19-.37.24l.52,1.04h-.72l-.44-.94h-.19v.94h-.65v-2.36Zm.65.41v.63h.23c.14,0,.25-.03.32-.08.07-.05.11-.13.11-.23,0-.11-.04-.2-.11-.25-.07-.05-.19-.08-.35-.08h-.19Z"/>
      </g>
      <g>
        <text class="cls-28" transform="translate(47.64 39.6)"><tspan x="0" y="0">DESARROLLO Y CONSULTORIA SAS</tspan></text>
        <path class="cls-13" d="m33.52,42.81l-14.41-4.99-14.41,4.99.89-5.24c1.38.33,2.85.43,4.25.39,4.96-.16,10.18-2.04,14.47-4.45.56-.32,1.12-.65,1.67-.99l6.18,2.36,1.35,7.93h0Zm-26.56-8.28c1.06.22,2.16.26,3.23.17,2.93-.25,5.96-1.15,8.68-2.25,1.08-.43,2.14-.91,3.18-1.43l-2.95-1.13-12.15,4.64Z"/>
        <path class="cls-13" d="m30.86,33.81l-4.28-1.67c1.27-.83,2.49-1.73,3.65-2.7l.64,4.37h0Zm-8.09-3.15c.67-.35,1.33-.72,1.98-1.11,1.32-.79,2.65-1.68,3.84-2.68l-9.48-4.3-10.83,4.92-.92,6.33,11.75-4.58,3.66,1.42Z"/>
        <polygon class="cls-13" points="28.51 25.99 19.11 21.76 9.71 25.99 10.39 20.84 19.11 16.36 27.83 20.84 28.51 25.99"/>
        <path class="cls-13" d="m26.53,19.38l-7.42-3.95-7.42,3.95.46-4.17c.4-.29,1.42-1.75,1.64-2.19.52-1.03,1.17-2.34,1.17-2.34l4.15-2.48,4.15,2.48s.66,1.3,1.17,2.34c.22.44,1.24,1.9,1.64,2.19l.46,4.17Z"/>
        <polygon class="cls-13" points="6.97 42.71 19.11 38.46 31.24 42.71 6.97 42.71"/>
        <path class="cls-13" d="m34.34,17.25l-.32-4.49s.61.22,1.28.78l.18.63c.06.27-.09.85-.17,1.1-.22.66-.57,1.34-.97,1.99Z"/>
        <path class="cls-13" d="m11.39,15.77s-.06.04-.1.07c-1.66,1.09-6.26,4.39-8.97,9.14-3.34,5.87,1.16,10.64,7.89,10.06,6.73-.58,15.21-4.77,19.28-8.52.05-.05.1-.09.15-.14h0s0,0,0,0c.03-.03.05-.05.08-.08.29-.26,1.27-1.04,1.27-1.04l-1.92-2.8c1.7-.82,3.18-1.79,4.31-3.24,2.85-3.66,2.43-5.13,2.43-5.13,3.75,3.41-.29,12.57-1.88,15.95l-1.8-2.8c-2.15,2.17-4.86,4.24-7.99,6-9.96,5.59-20.42,5.92-23.37.73-2.74-4.82,1.96-12.69,10.62-18.27v.09Z"/>
        <path class="cls-13" d="m43.53,34.09v-10.59h2.93v10.59h-2.93Zm8.34,0h-2.68v-10.59h2.79s4.58,6.31,4.79,6.77c-.02-.49,0-6.77,0-6.77h2.81v10.59h-2.78s-4.73-6.32-4.94-6.77m10.39,6.77v-10.59h2.22c1.65,0,2.82.08,3.5.23.69.15,1.29.41,1.8.77.67.47,1.18,1.07,1.53,1.8.35.73.52,1.56.52,2.5s-.17,1.77-.52,2.5c-.35.73-.86,1.33-1.53,1.8-.51.36-1.1.61-1.76.76-.66.15-1.68.23-3.06.23h-2.7Zm2.87-2.37h.49c1.14,0,1.97-.23,2.49-.7.52-.46.78-1.2.78-2.22s-.26-1.75-.78-2.23c-.52-.47-1.36-.71-2.49-.71h-.49v5.85h0Zm8.92,2.37v-10.59h6.51v2.32h-3.69v1.84h3.48v2.27h-3.48v1.79h3.69v2.37h-6.51Zm9.82-3.42c.43.49.86.85,1.27,1.09.42.24.83.36,1.25.36.39,0,.71-.1.95-.31.25-.21.37-.47.37-.79,0-.35-.11-.62-.32-.81-.22-.19-.7-.39-1.46-.59-1.04-.28-1.78-.64-2.21-1.09-.43-.45-.65-1.06-.65-1.84,0-1.01.34-1.84,1.02-2.48.68-.64,1.56-.96,2.65-.96.59,0,1.14.08,1.67.23.53.16,1.02.39,1.49.71l-.91,2.07c-.33-.28-.67-.49-1.01-.63-.34-.14-.69-.21-1.03-.21s-.63.08-.85.25c-.22.17-.33.38-.33.64s.09.48.29.64c.19.16.56.31,1.11.45l.13.04c1.18.32,1.96.67,2.33,1.05.25.26.44.57.58.94.13.37.2.77.2,1.21,0,1.12-.37,2.03-1.11,2.71-.74.68-1.73,1.02-2.96,1.02-.74,0-1.41-.13-2.02-.37-.61-.25-1.19-.64-1.75-1.18l1.31-2.15h0Zm16.49-6.75v3.15c-.4-.44-.79-.76-1.19-.96-.39-.2-.82-.31-1.27-.31-.83,0-1.51.28-2.02.85-.52.56-.77,1.3-.77,2.21,0,.85.26,1.55.79,2.11.53.56,1.19.84,2.01.84.45,0,.87-.1,1.27-.31.39-.2.79-.53,1.19-.97v3.15c-.46.22-.92.39-1.37.5-.46.11-.91.17-1.38.17-.58,0-1.12-.07-1.61-.2-.49-.14-.94-.35-1.35-.63-.79-.53-1.4-1.2-1.81-2-.42-.81-.62-1.71-.62-2.72,0-.81.13-1.54.4-2.21.26-.66.66-1.26,1.19-1.8.5-.52,1.07-.9,1.7-1.16.63-.25,1.33-.38,2.11-.38.47,0,.92.05,1.38.17.45.11.91.28,1.37.5h0Zm12.95,4.9c0,.76-.14,1.48-.42,2.14-.28.67-.69,1.26-1.23,1.79-.54.52-1.16.92-1.86,1.2-.7.28-1.42.42-2.17.42s-1.49-.14-2.18-.42c-.69-.28-1.3-.68-1.83-1.2-.55-.53-.96-1.12-1.25-1.79-.28-.67-.42-1.38-.42-2.13s.14-1.47.42-2.14c.29-.67.7-1.26,1.25-1.79.53-.52,1.14-.92,1.83-1.2.69-.28,1.42-.42,2.18-.42s1.48.14,2.18.42c.7.28,1.31.68,1.85,1.2.53.52.94,1.12,1.22,1.79.28.67.42,1.38.42,2.14h0Zm-5.68,3.11c.8,0,1.47-.29,1.99-.88.53-.59.79-1.33.79-2.23s-.27-1.63-.8-2.22c-.53-.59-1.19-.89-1.98-.89s-1.47.3-1.99.89c-.53.59-.79,1.33-.79,2.22s.26,1.65.78,2.23c.52.58,1.19.88,2,.88Z"/>
        <path class="cls-23" d="m115.31,20.81c.3,0,.58.06.85.17.27.11.5.27.71.48.19.2.34.43.45.69s.15.53.15.82-.05.58-.16.84c-.11.26-.27.49-.47.69-.21.2-.45.36-.71.46s-.53.16-.81.16-.57-.06-.83-.17c-.26-.11-.5-.27-.7-.49-.2-.21-.36-.44-.46-.7-.11-.26-.16-.52-.16-.8s.06-.57.17-.84c.11-.27.28-.5.49-.71.2-.2.43-.35.68-.45.25-.1.52-.15.81-.15Zm0,.4c-.24,0-.46.04-.67.13-.21.08-.4.21-.56.37-.17.17-.31.37-.4.58-.09.22-.14.45-.14.69s.04.45.13.66c.08.21.21.39.38.56.17.17.36.31.58.4s.44.14.68.14.46-.04.67-.13.41-.21.58-.38c.17-.16.3-.35.39-.57.09-.21.13-.44.13-.68s-.04-.46-.13-.67c-.08-.21-.21-.4-.37-.56-.17-.17-.36-.31-.58-.4-.21-.09-.44-.14-.69-.14Zm-.91.53h.95c.33,0,.59.06.76.17.17.12.26.29.26.51,0,.16-.04.29-.13.4-.09.11-.21.19-.37.24l.52,1.04h-.72l-.44-.94h-.19v.94h-.65v-2.36Zm.65.41v.63h.23c.14,0,.25-.03.32-.08.07-.05.11-.13.11-.23,0-.11-.04-.2-.11-.25-.07-.05-.19-.08-.35-.08h-.19Z"/>
      </g>
      <g class="cls-32">
        <g class="cls-31">
          <path class="cls-11" d="m327.23,269.87c0,5.72-4.64,10.36-10.36,10.36s-10.36-4.64-10.36-10.36,4.64-10.36,10.36-10.36,10.36,4.64,10.36,10.36"/>
          <path class="cls-9" d="m314.87,273.66c-3.71-3.6-3.38-9.96-3.26-12.13.01-.25.03-.46.04-.6-3.07,1.8-5.13,5.13-5.13,8.94,0,5.72,4.64,10.36,10.36,10.36,3.35,0,6.33-1.59,8.22-4.06-.9.15-6.6,1.01-10.23-2.51"/>
          <path class="cls-7" d="m329.35,264.61c2.93,6.94-.32,14.93-7.26,17.86-6.94,2.93-14.93-.32-17.86-7.26-2.93-6.94.32-14.93,7.26-17.86,6.94-2.93,14.93.32,17.86,7.26Z"/>
          <path class="cls-17" d="m313.31,274.52c-.9-.93-1.39-2.21-1.48-3.83l-.02-.75.02-.73c.09-1.59.58-2.86,1.48-3.8.9-.94,2.1-1.41,3.6-1.41,1.62,0,2.87.52,3.76,1.55.89,1.03,1.34,2.43,1.34,4.19v.4c0,.15-.05.27-.14.36-.1.1-.22.14-.36.14h-7.66v.2c.04.96.34,1.77.88,2.45.54.68,1.27,1.02,2.16,1.02.69,0,1.25-.14,1.69-.41.43-.27.76-.56.98-.85.13-.18.24-.28.31-.32.07-.04.2-.06.38-.06h.97c.13,0,.25.04.34.11.1.07.14.17.14.29,0,.32-.2.71-.6,1.17-.4.46-.96.85-1.69,1.18-.73.33-1.56.5-2.51.5-1.5,0-2.7-.47-3.6-1.4m6.69-5.38v-.07c0-1.03-.28-1.87-.84-2.52-.56-.65-1.31-.97-2.25-.97s-1.71.32-2.25.97c-.54.65-.82,1.49-.82,2.52v.07h6.16Z"/>
          <path class="cls-11" d="m310.76,284.04c-1.08.03-1.98-.81-2.02-1.89-.03-1.08.81-1.98,1.89-2.02,1.08-.03,1.98.81,2.02,1.89.03,1.08-.81,1.98-1.89,2.02"/>
          <path class="cls-11" d="m323.46,259.65c-1.08.03-1.98-.81-2.02-1.89-.03-1.08.81-1.98,1.89-2.02,1.08-.03,1.98.81,2.02,1.89.03,1.08-.81,1.98-1.89,2.02"/>
          <path class="cls-11" d="m302.61,264.13c-.03-1.08.81-1.98,1.89-2.02,1.08-.03,1.98.81,2.02,1.89.03,1.08-.81,1.98-1.89,2.02-1.08.03-1.98-.81-2.02-1.89"/>
          <path class="cls-11" d="m327,276.32c-.03-1.08.81-1.98,1.89-2.02,1.08-.03,1.98.81,2.02,1.89.03,1.08-.81,1.98-1.89,2.02-1.08.03-1.98-.81-2.02-1.89"/>
          <path class="cls-11" d="m335.68,276.71s-.04-.06-.04-.1v-3.91s.01-.08.04-.1c.02-.03.06-.04.1-.04h2.46s.08.01.1.04c.03.03.04.06.04.1v.22s-.01.07-.04.1c-.03.02-.06.04-.1.04h-2.04v1.34h1.91s.08.01.1.04c.03.03.04.06.04.1v.2s-.01.07-.04.1c-.03.03-.06.04-.1.04h-1.91v1.38h2.09s.08.01.1.04c.03.03.04.06.04.1v.22s-.01.07-.04.1c-.03.03-.06.04-.1.04h-2.51s-.07-.01-.1-.04"/>
          <path class="cls-11" d="m339.55,276.67c-.19-.09-.33-.19-.42-.31-.09-.12-.14-.21-.14-.29,0-.04.01-.07.04-.09.03-.02.06-.03.09-.03h.25s.04,0,.06.01c.01,0,.03.03.06.05.09.11.19.2.31.26.11.06.27.1.46.1.22,0,.39-.04.52-.12.13-.08.19-.2.19-.35,0-.1-.03-.18-.08-.24-.06-.06-.15-.11-.28-.16-.13-.05-.32-.1-.58-.16-.35-.08-.59-.19-.74-.33-.14-.14-.22-.33-.22-.56,0-.15.04-.29.13-.43.09-.14.22-.25.39-.34.17-.09.38-.13.62-.13.25,0,.47.04.64.13.18.08.31.18.4.29.09.11.13.21.13.28,0,.04-.01.07-.04.09-.03.02-.06.04-.09.04h-.23c-.06,0-.1-.02-.12-.07-.07-.08-.12-.13-.17-.18-.05-.04-.11-.08-.2-.11-.09-.03-.2-.04-.33-.04-.2,0-.35.04-.45.12-.1.08-.16.19-.16.33,0,.08.02.15.07.21.04.06.13.11.25.16.12.05.31.1.55.15.38.08.65.19.81.34.16.15.24.34.24.57,0,.17-.05.33-.15.47-.1.14-.24.25-.44.33-.19.08-.42.12-.69.12s-.51-.04-.7-.13"/>
          <path class="cls-11" d="m342.47,276.44c-.24-.24-.37-.58-.38-1.01v-.24s0-.24,0-.24c.01-.44.14-.77.38-1.01.24-.24.57-.36,1-.36.29,0,.53.05.73.15.2.1.35.23.44.38.1.15.15.3.16.46,0,.04,0,.07-.04.1-.03.03-.06.04-.1.04h-.26s-.07,0-.09-.03c-.02-.02-.04-.05-.06-.1-.07-.2-.17-.33-.3-.42-.13-.08-.28-.12-.48-.12-.25,0-.45.08-.6.23-.15.16-.23.39-.24.71v.21s0,.21,0,.21c.01.32.09.56.24.71.15.16.35.23.6.23.2,0,.36-.04.48-.12.12-.08.22-.22.29-.42.02-.05.04-.08.06-.1.02-.02.05-.03.09-.03h.26s.07.01.1.04c.03.03.04.06.04.1,0,.15-.06.3-.16.45-.1.15-.25.28-.44.38-.2.1-.44.16-.73.16-.43,0-.76-.12-1-.36"/>
          <path class="cls-11" d="m345.8,276.44c-.21-.25-.31-.57-.31-.98v-1.69s.01-.07.04-.1c.03-.03.06-.04.1-.04h.28s.07.01.1.04.04.06.04.1v1.66c0,.61.26.91.79.91.26,0,.46-.08.61-.24.15-.16.22-.38.22-.67v-1.66s.01-.07.04-.1c.03-.03.06-.04.1-.04h.28s.07.01.1.04c.03.03.04.06.04.1v2.84s-.01.07-.04.1c-.03.03-.06.04-.1.04h-.26s-.07-.01-.1-.04c-.03-.03-.04-.06-.04-.1v-.27c-.12.16-.25.27-.41.35-.16.08-.35.12-.59.12-.38,0-.67-.12-.88-.37"/>
          <path class="cls-11" d="m349.37,276.43c-.24-.25-.38-.6-.4-1.04v-.2s0-.2,0-.2c.02-.43.16-.77.4-1.03.24-.26.57-.38.98-.38.44,0,.78.14,1.02.42.24.28.36.66.36,1.14v.11s-.01.07-.04.1c-.03.03-.06.04-.1.04h-2.08v.05c.01.26.09.48.24.66.15.18.34.28.59.28.19,0,.34-.04.46-.11.12-.07.21-.15.27-.23.04-.05.06-.08.08-.09.02,0,.05-.01.1-.01h.26s.07.01.09.03c.03.02.04.05.04.08,0,.09-.05.19-.16.32-.11.12-.26.23-.46.32-.2.09-.42.13-.68.13-.41,0-.73-.13-.98-.38m1.81-1.46v-.02c0-.28-.08-.51-.23-.68-.15-.18-.36-.26-.61-.26s-.46.09-.61.26c-.15.18-.22.4-.22.68v.02h1.67Z"/>
          <path class="cls-11" d="m352.5,276.71s-.04-.06-.04-.1v-3.98s.01-.08.04-.1c.03-.02.06-.04.1-.04h.26s.07.01.1.04c.03.03.04.06.04.1v3.98s-.01.07-.04.1c-.03.03-.06.04-.1.04h-.26s-.07-.01-.1-.04"/>
          <path class="cls-11" d="m354.22,276.69c-.17-.08-.3-.19-.4-.33-.1-.14-.15-.29-.15-.46,0-.26.11-.48.32-.65.22-.17.51-.28.88-.34l.9-.13v-.17c0-.41-.24-.62-.71-.62-.18,0-.33.04-.44.11-.11.07-.19.16-.25.26-.02.04-.03.07-.05.08-.02.01-.04.02-.07.02h-.23s-.07-.01-.09-.04c-.03-.03-.04-.06-.04-.09,0-.09.04-.2.13-.32.09-.12.22-.23.4-.32.18-.09.4-.13.66-.13.45,0,.77.1.96.31.19.21.29.47.29.78v1.95s-.01.07-.04.1-.06.04-.1.04h-.26s-.07-.01-.1-.04c-.02-.03-.04-.06-.04-.1v-.26c-.09.13-.22.24-.38.33-.17.09-.38.13-.65.13-.2,0-.38-.04-.54-.12m1.31-.57c.17-.17.25-.42.25-.75v-.17l-.7.1c-.29.04-.51.11-.65.2-.15.1-.22.22-.22.36,0,.16.07.29.2.38.13.09.29.13.48.13.26,0,.48-.09.65-.26"/>
          <path class="cls-11" d="m358.86,276.4c-.21-.27-.32-.61-.34-1.03v-.18s0-.18,0-.18c.02-.41.13-.75.34-1.03.21-.27.52-.41.94-.41s.74.15.97.44v-1.38s.01-.07.04-.1c.03-.03.06-.04.1-.04h.27s.07.01.1.04c.03.03.04.06.04.1v3.98s-.01.07-.04.1c-.03.03-.06.04-.1.04h-.26s-.07-.01-.1-.04-.04-.06-.04-.1v-.26c-.23.3-.56.45-.99.45s-.73-.14-.94-.41m1.69-.34c.14-.19.22-.41.23-.66,0-.04,0-.12,0-.23s0-.19,0-.23c0-.24-.08-.45-.23-.63-.15-.18-.35-.27-.63-.27-.29,0-.5.09-.63.27-.13.18-.2.42-.22.71v.17c0,.77.28,1.15.84,1.15.28,0,.49-.09.63-.28"/>
          <path class="cls-11" d="m362.48,276.43c-.24-.25-.38-.6-.4-1.04v-.2s0-.2,0-.2c.02-.43.16-.77.4-1.03.24-.26.57-.38.98-.38.44,0,.78.14,1.02.42.24.28.36.66.36,1.14v.11s-.01.07-.04.1c-.03.03-.06.04-.1.04h-2.08v.05c.01.26.09.48.24.66.15.18.34.28.59.28.19,0,.34-.04.46-.11.12-.07.21-.15.27-.23.04-.05.06-.08.08-.09.02,0,.05-.01.1-.01h.26s.07.01.09.03c.03.02.04.05.04.08,0,.09-.05.19-.16.32-.11.12-.26.23-.46.32-.2.09-.42.13-.68.13-.41,0-.73-.13-.98-.38m1.81-1.46v-.02c0-.28-.08-.51-.23-.68-.15-.18-.36-.26-.61-.26s-.46.09-.61.26c-.15.18-.22.4-.22.68v.02h1.67Z"/>
          <path class="cls-11" d="m367.15,276.71s-.04-.06-.04-.1v-3.91s.01-.08.04-.1c.02-.03.06-.04.1-.04h.26s.07,0,.09.02c.02.02.04.04.06.06l2.01,3.09v-3.03s.01-.08.04-.1c.03-.03.06-.04.1-.04h.27s.08.01.1.04c.03.03.04.06.04.1v3.9s-.01.07-.04.1c-.03.03-.06.04-.1.04h-.27c-.07,0-.12-.03-.14-.08l-2.01-3.06v3.01s-.01.07-.04.1c-.03.03-.06.04-.1.04h-.28s-.07-.01-.1-.04"/>
          <path class="cls-11" d="m371.45,276.43c-.24-.25-.38-.6-.4-1.04v-.2s0-.2,0-.2c.02-.43.16-.77.4-1.03.24-.26.57-.38.98-.38.44,0,.78.14,1.02.42.24.28.36.66.36,1.14v.11s-.01.07-.04.1c-.03.03-.06.04-.1.04h-2.08v.05c.01.26.09.48.24.66.15.18.34.28.59.28.19,0,.34-.04.46-.11.12-.07.21-.15.27-.23.04-.05.06-.08.08-.09.02,0,.05-.01.1-.01h.26s.07.01.09.03c.03.02.04.05.04.08,0,.09-.05.19-.16.32-.11.12-.26.23-.46.32-.2.09-.42.13-.68.13-.41,0-.73-.13-.98-.38m1.81-1.46v-.02c0-.28-.08-.51-.23-.68-.15-.18-.36-.26-.61-.26s-.46.09-.61.26c-.15.18-.22.4-.22.68v.02h1.67Z"/>
          <path class="cls-11" d="m375,277.89c-.2-.11-.34-.24-.42-.38-.08-.14-.12-.27-.12-.37,0-.04.01-.07.04-.09s.06-.04.1-.04h.26s.07,0,.09.03c.02.02.04.05.06.1.11.32.37.48.76.48.3,0,.52-.06.66-.19.14-.13.22-.35.22-.68v-.41c-.23.3-.55.44-.97.44s-.74-.14-.95-.41c-.21-.27-.32-.61-.33-1.03v-.17s0-.16,0-.16c.01-.41.12-.75.33-1.03.21-.27.53-.41.95-.41s.75.15.98.46v-.26s.01-.07.04-.1c.03-.03.06-.04.1-.04h.26s.07.01.1.04c.03.03.04.06.04.1v2.9c0,.92-.46,1.38-1.39,1.38-.33,0-.6-.06-.8-.17m1.42-1.86c.14-.18.22-.4.23-.66,0-.04,0-.11,0-.21s0-.17,0-.2c-.01-.26-.09-.47-.23-.66-.14-.18-.35-.27-.63-.27s-.5.09-.63.27c-.13.18-.2.42-.21.7v.16s0,.16,0,.16c.01.29.08.52.21.7.13.18.34.27.63.27s.49-.09.63-.27"/>
          <path class="cls-11" d="m378.35,276.43c-.24-.25-.36-.58-.38-.99v-.26s0-.26,0-.26c.02-.41.14-.74.39-.99.24-.25.58-.37,1.01-.37s.77.12,1.01.37c.24.25.37.58.39.99,0,.09.01.17.01.26s0,.17-.01.26c-.02.41-.14.74-.38.99-.24.25-.58.37-1.01.37s-.78-.12-1.01-.37m1.62-.32c.15-.16.23-.39.24-.7,0-.04,0-.12,0-.23s0-.19,0-.23c-.01-.3-.09-.54-.24-.7-.15-.16-.35-.24-.61-.24s-.46.08-.61.24c-.15.16-.23.39-.24.7v.23s0,.23,0,.23c.01.3.09.54.24.7.15.16.35.24.61.24s.46-.08.61-.24"/>
          <path class="cls-11" d="m381.77,276.44c-.24-.24-.37-.58-.38-1.01v-.24s0-.24,0-.24c.01-.44.14-.77.38-1.01.24-.24.57-.36,1-.36.29,0,.53.05.73.15.2.1.35.23.44.38.1.15.15.3.16.46,0,.04,0,.07-.04.1-.03.03-.06.04-.1.04h-.26s-.07,0-.09-.03c-.02-.02-.04-.05-.06-.1-.07-.2-.17-.33-.3-.42-.13-.08-.28-.12-.48-.12-.25,0-.45.08-.6.23-.15.16-.23.39-.24.71v.21s0,.21,0,.21c.01.32.09.56.24.71.15.16.35.23.6.23.2,0,.36-.04.48-.12.12-.08.22-.22.29-.42.02-.05.04-.08.06-.1.02-.02.05-.03.09-.03h.26s.07.01.1.04c.03.03.04.06.04.1,0,.15-.06.3-.16.45-.1.15-.25.28-.44.38-.2.1-.44.16-.73.16-.43,0-.76-.12-1-.36"/>
          <path class="cls-11" d="m384.81,273.01s-.04-.06-.04-.1v-.31s.01-.07.04-.1c.03-.03.06-.04.1-.04h.35s.07.01.1.04c.03.03.04.06.04.1v.31s-.01.07-.04.1c-.03.03-.06.04-.1.04h-.35s-.07-.01-.1-.04m.05,3.7s-.04-.06-.04-.1v-2.84s.01-.07.04-.1c.03-.03.06-.04.1-.04h.26s.07.01.1.04c.03.03.04.06.04.1v2.84s-.01.07-.04.1c-.03.03-.06.04-.1.04h-.26s-.07-.01-.1-.04"/>
          <path class="cls-11" d="m386.5,276.43c-.24-.25-.36-.58-.38-.99v-.26s0-.26,0-.26c.02-.41.14-.74.39-.99.24-.25.58-.37,1.01-.37s.77.12,1.01.37c.24.25.37.58.39.99,0,.09.01.17.01.26s0,.17-.01.26c-.02.41-.14.74-.38.99-.24.25-.58.37-1.01.37s-.78-.12-1.01-.37m1.62-.32c.15-.16.23-.39.24-.7,0-.04,0-.12,0-.23s0-.19,0-.23c-.01-.3-.09-.54-.24-.7-.15-.16-.35-.24-.61-.24s-.46.08-.61.24c-.15.16-.23.39-.24.7v.23s0,.23,0,.23c.01.3.09.54.24.7.15.16.35.24.61.24s.46-.08.61-.24"/>
          <path class="cls-11" d="m390.04,276.67c-.19-.09-.33-.19-.42-.31-.09-.12-.14-.21-.14-.29,0-.04.01-.07.04-.09.03-.02.06-.03.09-.03h.25s.04,0,.06.01c.01,0,.03.03.06.05.09.11.19.2.31.26.11.06.27.1.46.1.22,0,.39-.04.52-.12.13-.08.19-.2.19-.35,0-.1-.03-.18-.08-.24-.06-.06-.15-.11-.28-.16-.13-.05-.32-.1-.58-.16-.35-.08-.59-.19-.74-.33-.14-.14-.22-.33-.22-.56,0-.15.04-.29.13-.43.09-.14.22-.25.39-.34.17-.09.38-.13.62-.13.25,0,.47.04.64.13.18.08.31.18.4.29.09.11.13.21.13.28,0,.04-.01.07-.04.09-.03.02-.06.04-.09.04h-.23c-.06,0-.1-.02-.12-.07-.07-.08-.12-.13-.17-.18-.05-.04-.11-.08-.2-.11-.09-.03-.2-.04-.33-.04-.2,0-.35.04-.45.12-.1.08-.16.19-.16.33,0,.08.02.15.07.21.04.06.13.11.25.16.12.05.31.1.55.15.38.08.65.19.81.34.16.15.24.34.24.57,0,.17-.05.33-.15.47-.1.14-.24.25-.44.33-.19.08-.42.12-.69.12s-.51-.04-.7-.13"/>
          <path class="cls-11" d="m394.48,277.85s-.04-.05-.04-.08c0-.01.01-.05.03-.11l.47-1.1-1.14-2.7s-.04-.08-.04-.1c0-.04.02-.07.04-.09.02-.02.05-.04.08-.04h.28c.06,0,.11.03.14.1l.92,2.2.95-2.2c.03-.06.08-.1.14-.1h.27s.06.01.08.04c.02.02.04.05.04.08,0,.03-.01.06-.03.11l-1.69,3.93s-.04.06-.06.07c-.02.02-.05.02-.09.02h-.26s-.07-.01-.09-.04"/>
          <path class="cls-11" d="m335.68,283.65s-.04-.06-.04-.1v-3.91s.01-.08.04-.1c.02-.03.06-.04.1-.04h2.46s.08.01.1.04c.03.03.04.06.04.1v.22s-.01.07-.04.1c-.03.02-.06.04-.1.04h-2.04v1.34h1.91s.08.01.1.04c.03.03.04.06.04.1v.2s-.01.07-.04.1c-.03.03-.06.04-.1.04h-1.91v1.38h2.09s.08.01.1.04c.03.03.04.06.04.1v.22s-.01.07-.04.1c-.03.03-.06.04-.1.04h-2.51s-.07-.01-.1-.04"/>
          <path class="cls-11" d="m339.34,283.34c-.21-.27-.32-.61-.34-1.03v-.18s0-.18,0-.18c.02-.41.13-.75.34-1.03.21-.27.52-.41.94-.41s.74.15.97.44v-1.38s.01-.07.04-.1c.03-.03.06-.04.1-.04h.27s.07.01.1.04c.03.03.04.06.04.1v3.98s-.01.07-.04.1c-.03.03-.06.04-.1.04h-.26s-.07-.01-.1-.04c-.02-.03-.04-.06-.04-.1v-.26c-.23.3-.56.45-.99.45s-.73-.14-.94-.41m1.69-.34c.14-.19.22-.41.23-.66,0-.04,0-.12,0-.23s0-.19,0-.23c0-.24-.08-.45-.23-.63-.15-.18-.35-.27-.63-.27-.29,0-.5.09-.63.27-.13.18-.2.42-.22.71v.17c0,.77.28,1.15.84,1.15.28,0,.49-.09.63-.28"/>
          <path class="cls-11" d="m342.99,283.38c-.21-.25-.31-.57-.31-.98v-1.69s.01-.07.04-.1c.03-.03.06-.04.1-.04h.28s.07.01.1.04c.03.03.04.06.04.1v1.66c0,.61.26.91.79.91.26,0,.46-.08.61-.24.15-.16.22-.38.22-.67v-1.66s.01-.07.04-.1c.03-.03.06-.04.1-.04h.28s.07.01.1.04c.03.03.04.06.04.1v2.84s-.01.07-.04.1c-.03.03-.06.04-.1.04h-.26s-.07-.01-.1-.04c-.03-.03-.04-.06-.04-.1v-.27c-.12.16-.25.27-.41.35-.16.08-.35.12-.59.12-.38,0-.67-.12-.88-.37"/>
          <path class="cls-11" d="m346.54,283.38c-.24-.24-.37-.58-.38-1.01v-.24s0-.24,0-.24c.01-.44.14-.77.38-1.01.24-.24.57-.36,1-.36.29,0,.53.05.73.15.2.1.35.23.44.38.1.15.15.3.16.46,0,.04,0,.07-.04.1-.03.03-.06.04-.1.04h-.26s-.07,0-.09-.03c-.02-.02-.04-.05-.06-.1-.07-.2-.17-.33-.3-.42-.13-.08-.28-.12-.48-.12-.25,0-.45.08-.6.23-.15.16-.23.39-.24.71v.21s0,.21,0,.21c.01.32.09.56.24.71.15.16.35.23.6.23.2,0,.36-.04.48-.12.12-.08.22-.22.29-.42.02-.05.04-.08.06-.1.02-.02.05-.03.09-.03h.26s.07.01.1.04c.03.03.04.06.04.1,0,.15-.06.3-.16.45-.1.15-.25.28-.44.38-.2.1-.44.16-.73.16-.43,0-.76-.12-1-.36"/>
          <path class="cls-11" d="m349.91,283.63c-.17-.08-.3-.19-.4-.33-.1-.14-.15-.29-.15-.46,0-.26.11-.48.32-.65.22-.17.51-.28.88-.34l.9-.13v-.17c0-.41-.24-.62-.71-.62-.18,0-.33.04-.44.11-.11.07-.19.16-.25.26-.02.04-.03.07-.05.08-.02.01-.04.02-.07.02h-.23s-.07-.01-.09-.04c-.03-.03-.04-.06-.04-.09,0-.09.04-.2.13-.32.09-.12.22-.23.4-.32.18-.09.4-.13.66-.13.45,0,.77.1.96.31.19.21.29.47.29.78v1.95s-.01.07-.04.1-.06.04-.1.04h-.26s-.07-.01-.1-.04c-.02-.03-.04-.06-.04-.1v-.26c-.09.13-.22.24-.38.33-.17.09-.38.13-.65.13-.2,0-.38-.04-.54-.12m1.31-.57c.17-.17.25-.42.25-.75v-.17l-.7.1c-.29.04-.51.11-.65.2-.15.1-.22.22-.22.36,0,.16.07.29.2.38.13.09.29.13.48.13.26,0,.48-.09.65-.26"/>
          <path class="cls-11" d="m353.13,283.38c-.24-.24-.37-.58-.38-1.01v-.24s0-.24,0-.24c.01-.44.14-.77.38-1.01.24-.24.57-.36,1-.36.29,0,.53.05.73.15.2.1.35.23.44.38.1.15.15.3.16.46,0,.04,0,.07-.04.1-.03.03-.06.04-.1.04h-.26s-.07,0-.09-.03c-.02-.02-.04-.05-.06-.1-.07-.2-.17-.33-.3-.42-.13-.08-.28-.12-.48-.12-.25,0-.45.08-.6.23-.15.16-.23.39-.24.71v.21s0,.21,0,.21c.01.32.09.56.24.71.15.16.35.23.6.23.2,0,.36-.04.48-.12.12-.08.22-.22.29-.42.02-.05.04-.08.06-.1.02-.02.05-.03.09-.03h.26s.07.01.1.04c.03.03.04.06.04.1,0,.15-.06.3-.16.45-.1.15-.25.28-.44.38-.2.1-.44.16-.73.16-.43,0-.76-.12-1-.36"/>
          <path class="cls-11" d="m356.17,279.95s-.04-.06-.04-.1v-.31s.01-.07.04-.1c.03-.03.06-.04.1-.04h.35s.07.01.1.04c.03.03.04.06.04.1v.31s-.01.07-.04.1c-.03.03-.06.04-.1.04h-.35s-.07-.01-.1-.04m.05,3.7s-.04-.06-.04-.1v-2.84s.01-.07.04-.1c.03-.03.06-.04.1-.04h.26s.07.01.1.04c.03.03.04.06.04.1v2.84s-.01.07-.04.1c-.03.03-.06.04-.1.04h-.26s-.07-.01-.1-.04"/>
          <path class="cls-11" d="m357.86,283.37c-.24-.25-.36-.58-.38-.99v-.26s0-.26,0-.26c.02-.41.14-.74.39-.99.24-.25.58-.37,1.01-.37s.77.12,1.01.37c.24.25.37.58.39.99,0,.09.01.17.01.26s0,.17-.01.26c-.02.41-.14.74-.38.99-.24.25-.58.37-1.01.37s-.78-.12-1.01-.37m1.62-.32c.15-.16.23-.39.24-.7,0-.04,0-.12,0-.23s0-.19,0-.23c-.01-.3-.09-.54-.24-.7-.15-.16-.35-.24-.61-.24s-.46.08-.61.24-.23.39-.24.7v.23s0,.23,0,.23c.01.3.09.54.24.7.15.16.35.24.61.24s.46-.08.61-.24m-.87-3.03s0-.06.03-.08l.44-.54s.07-.07.1-.09c.03-.01.07-.02.12-.02h.39c.08,0,.11.04.11.11,0,.03-.01.05-.03.07l-.69.57s-.06.05-.09.05c-.03,0-.06.01-.11.01h-.19c-.06,0-.1-.03-.1-.1"/>
          <path class="cls-11" d="m361.07,283.65s-.04-.06-.04-.1v-2.84s.01-.07.04-.1c.03-.03.06-.04.1-.04h.26s.08.01.1.04c.02.02.04.06.04.1v.26c.12-.15.26-.26.42-.34.16-.08.35-.12.59-.12.38,0,.68.12.89.37.21.25.32.57.32.97v1.69s-.01.07-.04.1c-.03.03-.06.04-.1.04h-.28s-.07-.01-.1-.04c-.03-.03-.04-.06-.04-.1v-1.66c0-.29-.07-.51-.21-.67-.14-.16-.34-.24-.6-.24s-.46.08-.61.24c-.15.16-.23.38-.23.67v1.66s-.01.07-.04.1c-.03.03-.06.04-.1.04h-.28s-.07-.01-.1-.04"/>
          <path class="cls-11" d="m366.24,283.65s-.04-.06-.04-.1v-3.91s.01-.08.04-.1c.02-.03.06-.04.1-.04h2.43s.08.01.1.04c.03.03.04.06.04.1v.22s-.01.07-.04.1c-.03.03-.06.04-.1.04h-2.01v1.42h1.89s.08.01.1.04c.03.03.04.06.04.1v.23s-.01.07-.04.1c-.03.03-.06.04-.1.04h-1.89v1.63s-.01.07-.04.1c-.03.03-.06.04-.1.04h-.28s-.07-.01-.1-.04"/>
          <path class="cls-11" d="m369.61,279.95s-.04-.06-.04-.1v-.31s.01-.07.04-.1c.03-.03.06-.04.1-.04h.35s.07.01.1.04c.03.03.04.06.04.1v.31s-.01.07-.04.1c-.03.03-.06.04-.1.04h-.35s-.07-.01-.1-.04m.05,3.7s-.04-.06-.04-.1v-2.84s.01-.07.04-.1c.03-.03.06-.04.1-.04h.26s.07.01.1.04c.03.03.04.06.04.1v2.84s-.01.07-.04.1c-.03.03-.06.04-.1.04h-.26s-.07-.01-.1-.04"/>
          <path class="cls-11" d="m371.09,283.65s-.04-.06-.04-.1v-2.84s.01-.07.04-.1c.03-.03.06-.04.1-.04h.26s.08.01.1.04c.02.02.04.06.04.1v.26c.12-.15.26-.26.42-.34.16-.08.35-.12.59-.12.38,0,.68.12.89.37.21.25.32.57.32.97v1.69s-.01.07-.04.1c-.03.03-.06.04-.1.04h-.28s-.07-.01-.1-.04c-.03-.03-.04-.06-.04-.1v-1.66c0-.29-.07-.51-.21-.67-.14-.16-.34-.24-.6-.24s-.46.08-.61.24c-.15.16-.23.38-.23.67v1.66s-.01.07-.04.1c-.03.03-.06.04-.1.04h-.28s-.07-.01-.1-.04"/>
          <path class="cls-11" d="m374.99,283.63c-.17-.08-.3-.19-.4-.33-.1-.14-.15-.29-.15-.46,0-.26.11-.48.32-.65.22-.17.51-.28.88-.34l.9-.13v-.17c0-.41-.24-.62-.71-.62-.18,0-.33.04-.44.11-.11.07-.19.16-.25.26-.02.04-.03.07-.05.08-.02.01-.04.02-.07.02h-.23s-.07-.01-.09-.04c-.03-.03-.04-.06-.04-.09,0-.09.04-.2.13-.32.09-.12.22-.23.4-.32.18-.09.4-.13.66-.13.45,0,.77.1.96.31.19.21.29.47.29.78v1.95s-.01.07-.04.1c-.03.03-.06.04-.1.04h-.26s-.07-.01-.1-.04c-.02-.03-.04-.06-.04-.1v-.26c-.09.13-.22.24-.38.33-.17.09-.38.13-.65.13-.2,0-.38-.04-.54-.12m1.31-.57c.17-.17.25-.42.25-.75v-.17l-.7.1c-.29.04-.5.11-.65.2-.15.1-.22.22-.22.36,0,.16.07.29.2.38.13.09.29.13.48.13.26,0,.48-.09.65-.26"/>
          <path class="cls-11" d="m378,283.65s-.04-.06-.04-.1v-2.84s.01-.07.04-.1c.03-.03.06-.04.1-.04h.26s.08.01.1.04c.02.02.04.06.04.1v.26c.12-.15.26-.26.42-.34.16-.08.35-.12.59-.12.38,0,.68.12.89.37.21.25.32.57.32.97v1.69s-.01.07-.04.1c-.03.03-.06.04-.1.04h-.28s-.07-.01-.1-.04c-.03-.03-.04-.06-.04-.1v-1.66c0-.29-.07-.51-.21-.67-.14-.16-.34-.24-.6-.24s-.46.08-.61.24c-.15.16-.23.38-.23.67v1.66s-.01.07-.04.1c-.03.03-.06.04-.1.04h-.28s-.07-.01-.1-.04"/>
          <path class="cls-11" d="m381.82,283.38c-.24-.24-.37-.58-.38-1.01v-.24s0-.24,0-.24c.01-.44.14-.77.38-1.01.24-.24.57-.36,1-.36.29,0,.53.05.73.15.2.1.35.23.44.38.1.15.15.3.16.46,0,.04,0,.07-.04.1-.03.03-.06.04-.1.04h-.26s-.07,0-.09-.03c-.02-.02-.04-.05-.06-.1-.07-.2-.17-.33-.3-.42-.13-.08-.28-.12-.48-.12-.25,0-.45.08-.6.23-.15.16-.23.39-.24.71v.21s0,.21,0,.21c.01.32.09.56.24.71.15.16.35.23.6.23.2,0,.36-.04.48-.12.12-.08.22-.22.29-.42.02-.05.04-.08.06-.1.02-.02.05-.03.09-.03h.26s.07.01.1.04c.03.03.04.06.04.1,0,.15-.06.3-.16.45-.1.15-.25.28-.44.38-.2.1-.44.16-.73.16-.43,0-.76-.12-1-.36"/>
          <path class="cls-11" d="m384.86,279.95s-.04-.06-.04-.1v-.31s.01-.07.04-.1c.03-.03.06-.04.1-.04h.35s.07.01.1.04c.03.03.04.06.04.1v.31s-.01.07-.04.1c-.03.03-.06.04-.1.04h-.35s-.07-.01-.1-.04m.05,3.7s-.04-.06-.04-.1v-2.84s.01-.07.04-.1c.03-.03.06-.04.1-.04h.26s.07.01.1.04c.03.03.04.06.04.1v2.84s-.01.07-.04.1c-.03.03-.06.04-.1.04h-.26s-.07-.01-.1-.04"/>
          <path class="cls-11" d="m386.56,283.36c-.24-.25-.38-.6-.4-1.04v-.2s0-.2,0-.2c.02-.43.16-.77.4-1.03.24-.26.57-.38.98-.38.44,0,.78.14,1.02.42.24.28.36.66.36,1.14v.11s-.01.07-.04.1c-.03.03-.06.04-.1.04h-2.08v.05c.01.26.09.48.24.66.15.18.34.28.59.28.19,0,.34-.04.46-.11.12-.07.21-.15.27-.23.04-.05.06-.08.08-.09.02,0,.05-.01.1-.01h.26s.07.01.09.03c.03.02.04.05.04.08,0,.09-.05.19-.16.32-.11.12-.26.23-.46.32-.2.09-.42.13-.68.13-.41,0-.73-.13-.98-.38m1.81-1.46v-.02c0-.28-.08-.51-.23-.68-.15-.18-.36-.26-.61-.26s-.46.09-.61.26c-.15.18-.22.4-.22.68v.02h1.67Z"/>
          <path class="cls-11" d="m389.69,283.65s-.04-.06-.04-.1v-2.83s.01-.07.04-.1c.03-.03.06-.04.1-.04h.25s.08.01.1.04c.03.03.04.06.04.1v.26c.16-.27.44-.41.83-.41h.23s.08.01.1.04c.02.02.04.06.04.1v.22s-.01.07-.04.1c-.02.03-.06.04-.1.04h-.34c-.22,0-.39.06-.52.19-.13.13-.19.3-.19.52v1.77s-.01.07-.04.1c-.03.03-.06.04-.1.04h-.27s-.07-.01-.1-.04"/>
          <path class="cls-11" d="m392.18,283.63c-.17-.08-.3-.19-.4-.33-.1-.14-.15-.29-.15-.46,0-.26.11-.48.32-.65.22-.17.51-.28.88-.34l.9-.13v-.17c0-.41-.24-.62-.71-.62-.18,0-.33.04-.44.11-.11.07-.19.16-.25.26-.02.04-.03.07-.05.08-.02.01-.04.02-.07.02h-.23s-.07-.01-.09-.04c-.03-.03-.04-.06-.04-.09,0-.09.04-.2.13-.32.09-.12.22-.23.4-.32.18-.09.4-.13.66-.13.45,0,.77.1.96.31.19.21.29.47.29.78v1.95s-.01.07-.04.1c-.03.03-.06.04-.1.04h-.26s-.07-.01-.1-.04c-.02-.03-.04-.06-.04-.1v-.26c-.09.13-.22.24-.38.33-.17.09-.38.13-.65.13-.2,0-.38-.04-.54-.12m1.31-.57c.17-.17.25-.42.25-.75v-.17l-.7.1c-.29.04-.5.11-.65.2-.15.1-.22.22-.22.36,0,.16.07.29.2.38.13.09.29.13.48.13.26,0,.48-.09.65-.26"/>
          <path class="cls-11" d="m335.76,269.36c-.1-.1-.15-.21-.15-.34v-12.6c0-.14.05-.26.14-.36.09-.1.21-.15.35-.15h9.16c.14,0,.26.05.36.15.1.1.15.22.15.36v1.92c0,.14-.05.26-.15.35-.1.09-.22.14-.36.14h-6.14v2.47h5.71c.14,0,.26.05.36.15.1.1.15.22.15.36v1.77c0,.14-.05.26-.15.36-.1.1-.22.15-.36.15h-5.71v2.52h6.29c.14,0,.26.05.36.15.1.1.15.22.15.36v1.92c0,.14-.05.26-.15.35-.1.09-.22.14-.36.14h-9.32c-.13,0-.24-.05-.34-.15"/>
          <path class="cls-11" d="m349.14,269.36c-.1-.1-.15-.21-.15-.34v-12.6c0-.14.05-.26.14-.36.09-.1.21-.15.35-.15h2.19c.3,0,.52.12.66.37l4.58,7.24v-7.11c0-.14.05-.26.14-.36.09-.1.21-.15.35-.15h2.47c.14,0,.26.05.35.15.09.1.14.22.14.36v12.58c0,.14-.05.26-.14.36-.09.1-.21.15-.35.15h-2.19c-.3,0-.52-.12-.66-.37l-4.56-6.95v6.83c0,.14-.05.26-.15.35-.1.09-.22.14-.36.14h-2.47c-.13,0-.24-.05-.34-.15"/>
          <path class="cls-11" d="m364.05,269.36c-.1-.1-.15-.21-.15-.34v-12.6c0-.14.05-.26.14-.36.09-.1.21-.15.35-.15h9.16c.14,0,.26.05.36.15.1.1.15.22.15.36v1.92c0,.14-.05.26-.15.35-.1.09-.22.14-.36.14h-6.13v2.47h5.71c.14,0,.26.05.36.15.1.1.15.22.15.36v1.77c0,.14-.05.26-.15.36-.1.1-.22.15-.36.15h-5.71v2.52h6.29c.14,0,.26.05.36.15.1.1.15.22.15.36v1.92c0,.14-.05.26-.15.35-.1.09-.22.14-.36.14h-9.32c-.13,0-.24-.05-.34-.15"/>
          <path class="cls-11" d="m377.43,269.36c-.1-.1-.15-.21-.15-.34v-12.6c0-.14.05-.26.14-.36.09-.1.21-.15.35-.15h9.03c.14,0,.26.05.36.15.1.1.15.22.15.36v2.06c0,.14-.05.26-.15.35-.1.09-.22.14-.36.14h-5.94v2.7h5.55c.14,0,.26.05.36.15.1.1.15.22.15.36v2.06c0,.14-.05.26-.15.35-.1.09-.22.14-.36.14h-5.55v4.31c0,.13-.05.24-.14.34-.09.1-.21.15-.35.15h-2.6c-.13,0-.24-.05-.34-.15"/>
        </g>
      </g>
      <g>
        <g>
          <path class="cls-24" d="m336.12,34.26c-2.91-3.38-2.95-8.61.18-11.91,4.92-4.99,8.96-9.08,13.87-14.07,3.62-3.55,6.83-4.01,9.69-1.47,5.29,5.2,10.57,10.39,15.86,15.59,4.35,5.14,2.84,8.88-.07,12.29-4.15,4.21-8.31,8.43-12.46,12.64-4.62,4.88-9.74,5.08-14.03.58-4.45-4.66-8.59-8.99-13.05-13.64"/>
          <polygon class="cls-18" points="347.1 4.59 347.19 40.78 342.42 32.99 342.42 4.62 347.1 4.59"/>
          <polygon class="cls-2" points="347.1 4.59 347.19 40.78 342.42 32.99 342.42 4.62 347.1 4.59"/>
          <polygon class="cls-18" points="348.6 .11 348.53 43.29 355.39 39.78 355.32 .11 348.6 .11"/>
          <polygon class="cls-2" points="348.6 .11 348.53 43.29 355.39 39.78 355.32 .11 348.6 .11"/>
          <g class="cls-27">
            <rect class="cls-10" x="356.77" y="1.44" width="6.79" height="37.5"/>
          </g>
          <polygon class="cls-1" points="356.77 1.44 356.77 38.94 363.56 35.36 363.56 1.44 356.77 1.44"/>
          <g class="cls-33">
            <rect class="cls-21" x="364.88" y="6.78" width="6.72" height="27.67"/>
          </g>
          <polygon class="cls-1" points="364.94 6.78 364.88 34.45 371.59 31 371.59 10.22 364.94 6.78"/>
          <polygon class="cls-16" points="342.42 4.62 342.42 32.99 341.95 31.42 341.93 4.62 342.42 4.62"/>
          <polygon class="cls-16" points="348.6 .11 348.53 43.29 347.98 42.14 347.99 .11 348.6 .11"/>
          <polygon class="cls-16" points="356.77 1.44 356.77 38.94 356.25 39.21 356.2 1.44 356.77 1.44"/>
          <polygon class="cls-16" points="364.94 6.76 364.88 34.45 364.43 34.72 364.45 6.77 364.94 6.76"/>
          <path class="cls-15" d="m347.15,25.34c-1.96,2.79-3.16,6.07-3.57,9.55-.39-.63-.78-1.27-1.17-1.9V4.62h4.68c.02,7.11.04,13.6.06,20.72Z"/>
          <path class="cls-8" d="m347.15,25.34c-1.96,2.79-3.16,6.07-3.57,9.55-.39-.63-.78-1.27-1.17-1.9V4.62h4.68c.02,7.11.04,13.6.06,20.72Z"/>
          <path class="cls-15" d="m355.35,15.73c-2,1.5-4.75,3.8-6.78,7.27l.04-22.89h6.72c0,5.21.02,10.42.03,15.63"/>
          <path class="cls-16" d="m346.56,45.18c7.15,5.31,11.81,4.54,18.19.56-6.36,7.02-11.84,7.48-18.19-.56"/>
          <path class="cls-20" d="m347.64,49.29c6.37,4.73,10.52,4.04,16.2.5-5.67,6.26-10.55,6.66-16.2-.5"/>
        </g>
        <g>
          <path class="cls-19" d="m337.75,57.12c.65,0,1.21.12,1.68.37.47.24.82.59,1.06,1.04.24.45.36.98.36,1.59,0,.45-.07.86-.2,1.22-.13.37-.33.69-.59.95s-.59.48-.97.62-.82.21-1.32.21-.93-.07-1.32-.22c-.39-.15-.71-.35-.98-.62-.26-.27-.46-.59-.59-.96-.13-.37-.2-.78-.2-1.22s.07-.86.21-1.23c.14-.37.34-.69.6-.95.26-.26.58-.46.96-.6.38-.14.81-.21,1.29-.21Zm1.81,2.99c0-.43-.07-.79-.22-1.11-.15-.31-.36-.55-.64-.71-.28-.16-.59-.24-.95-.24-.25,0-.49.04-.71.13-.22.09-.4.22-.56.39-.16.17-.28.39-.37.65-.09.26-.14.56-.14.89s.05.63.14.9c.09.27.22.49.38.66.16.18.35.31.57.39s.45.13.7.13c.33,0,.63-.08.9-.23s.49-.38.65-.7c.16-.31.24-.7.24-1.16Z"/>
          <path class="cls-19" d="m344.22,63.02h-1.92c-.28,0-.48-.06-.59-.17-.12-.11-.18-.3-.18-.55v-4.37c0-.26.06-.44.18-.55.12-.11.32-.17.59-.17h2.04c.3,0,.56.02.78.05s.42.1.59.2c.15.08.28.19.4.31.11.13.2.26.26.42s.09.31.09.48c0,.58-.32,1.01-.95,1.28.83.24,1.24.72,1.24,1.42,0,.32-.09.62-.27.88-.18.26-.42.45-.73.58-.19.07-.41.13-.66.16-.25.03-.54.05-.87.05Zm-1.42-4.92v1.5h1.17c.32,0,.56-.03.74-.08.17-.06.31-.16.4-.32.07-.11.11-.24.11-.37,0-.29-.11-.49-.34-.58-.23-.1-.57-.14-1.04-.14h-1.04Zm1.33,2.35h-1.33v1.7h1.37c.86,0,1.29-.29,1.29-.86,0-.29-.11-.51-.33-.64-.22-.13-.56-.2-1-.2Z"/>
          <path class="cls-19" d="m349.16,60.54h-.45v1.87c0,.25-.06.43-.18.54-.12.12-.27.17-.46.17-.2,0-.36-.06-.47-.18s-.17-.3-.17-.53v-4.47c0-.25.06-.44.18-.55.12-.11.32-.17.6-.17h2.07c.29,0,.53.01.73.03.2.02.39.07.55.14.2.08.37.19.52.33.15.14.27.31.35.5.08.19.12.39.12.6,0,.43-.13.78-.4,1.04-.27.26-.67.44-1.2.55.23.11.44.27.65.49s.39.45.55.69.29.46.38.66c.09.2.14.33.14.41s-.03.15-.08.23c-.05.08-.13.13-.22.18-.09.04-.2.07-.32.07-.14,0-.26-.03-.36-.09-.1-.06-.18-.14-.25-.24-.07-.1-.17-.24-.29-.42l-.51-.78c-.18-.29-.35-.51-.49-.66s-.29-.25-.44-.31-.34-.08-.56-.08Zm.73-2.44h-1.18v1.6h1.14c.31,0,.56-.02.77-.07.21-.05.37-.13.48-.25.11-.12.17-.28.17-.49,0-.16-.04-.3-.13-.43s-.21-.21-.37-.28c-.15-.06-.44-.09-.88-.09Z"/>
          <path class="cls-19" d="m357.39,62.37l-.3-.73h-2.56l-.3.74c-.12.29-.22.49-.3.59s-.22.15-.41.15c-.16,0-.3-.05-.43-.16-.12-.11-.18-.23-.18-.37,0-.08.01-.16.04-.25s.08-.2.14-.35l1.61-3.77c.05-.11.1-.24.17-.39.06-.15.13-.28.21-.38.07-.1.17-.18.29-.24s.27-.09.44-.09.33.03.44.09c.12.06.21.14.29.24.07.1.13.2.18.31.05.11.11.26.19.45l1.65,3.75c.13.29.19.49.19.62s-.06.26-.18.37c-.12.11-.27.17-.44.17-.1,0-.19-.02-.26-.05s-.13-.08-.18-.13c-.05-.06-.1-.14-.16-.26-.06-.12-.1-.22-.14-.31Zm-2.53-1.61h1.88l-.95-2.4-.93,2.4Z"/>
          <path class="cls-19" d="m364.06,61.28c0,.35-.1.67-.29.95-.2.28-.48.5-.86.66-.38.16-.83.24-1.34.24-.62,0-1.13-.11-1.54-.32-.29-.16-.52-.36-.7-.62-.18-.26-.27-.51-.27-.76,0-.14.05-.26.16-.37.11-.1.24-.15.41-.15.13,0,.25.04.34.12s.17.2.24.35c.08.18.17.34.26.46.09.12.22.23.39.31s.39.12.67.12c.38,0,.68-.08.92-.24.24-.16.35-.37.35-.61,0-.19-.06-.35-.19-.47s-.29-.21-.49-.28c-.2-.06-.47-.13-.81-.2-.45-.1-.83-.21-1.14-.34-.31-.13-.55-.31-.73-.53-.18-.23-.27-.51-.27-.84s.09-.6.28-.85c.19-.25.46-.44.82-.57.36-.13.78-.2,1.26-.2.39,0,.72.04,1,.13.28.09.52.21.7.35s.32.3.41.46c.09.16.13.32.13.47,0,.14-.05.27-.16.38-.11.11-.24.17-.4.17-.15,0-.26-.03-.33-.1-.08-.07-.16-.18-.25-.33-.11-.22-.25-.39-.41-.51-.16-.12-.42-.18-.77-.18-.33,0-.59.07-.8.2-.2.13-.3.29-.3.48,0,.12.03.22.1.3.07.08.16.16.28.22s.24.11.37.14.33.08.61.15c.36.08.68.16.96.25.29.09.53.2.73.34.2.13.36.3.47.5.11.2.17.45.17.74Z"/>
          <path class="cls-19" d="m368.88,58.12h-2.87v1.43h2.65c.19,0,.34.04.44.12s.14.19.14.32-.05.24-.14.32-.24.12-.44.12h-2.65v1.65h2.97c.2,0,.35.04.45.13.1.09.15.2.15.34s-.05.25-.15.33c-.1.09-.25.13-.45.13h-3.47c-.28,0-.48-.06-.6-.17-.12-.11-.18-.3-.18-.55v-4.37c0-.17.03-.31.08-.41.05-.11.14-.18.26-.23.12-.05.26-.07.44-.07h3.37c.2,0,.35.04.45.12.1.08.15.19.15.33s-.05.25-.15.33c-.1.08-.25.12-.45.12Z"/>
          <path class="cls-19" d="m370.23,62.41v-4.58c0-.24.06-.42.18-.53.12-.12.27-.18.46-.18s.35.06.47.18.18.3.18.54v4.58c0,.24-.06.42-.18.54s-.27.18-.47.18-.33-.06-.45-.18-.18-.3-.18-.54Z"/>
          <path class="cls-19" d="m374.18,57.82l2.45,3.42v-3.45c0-.22.05-.39.16-.51.1-.11.25-.17.42-.17s.33.06.43.17c.11.11.16.28.16.51v4.57c0,.51-.23.76-.69.76-.11,0-.22-.02-.31-.05s-.18-.08-.26-.14-.15-.14-.22-.23c-.07-.09-.14-.18-.21-.27l-2.39-3.38v3.4c0,.22-.06.39-.17.5-.11.11-.25.17-.43.17s-.33-.06-.43-.17-.16-.28-.16-.5v-4.48c0-.19.02-.34.07-.45.05-.12.14-.22.27-.29.13-.08.26-.11.41-.11.11,0,.21.02.29.05s.15.08.21.14c.06.06.12.13.19.23.06.09.13.19.2.29Z"/>
        </g>
        <g>
          <path class="cls-25" d="m345.83,66.53c-.11.18-.33.34-.63.34-.51,0-.87-.4-.87-.95s.37-.95.87-.95c.25,0,.48.11.6.29l-.14.11c-.07-.12-.24-.24-.45-.24-.43,0-.7.37-.7.79s.26.79.7.79c.19,0,.38-.08.49-.27l.13.09Z"/>
          <path class="cls-25" d="m346.49,66.85c-.34,0-.59-.27-.59-.63s.25-.63.59-.63.59.27.59.63-.25.63-.59.63Zm0-1.11c-.26,0-.42.22-.42.48s.16.48.42.48.42-.21.42-.48-.16-.48-.42-.48Z"/>
          <path class="cls-25" d="m347.46,65.62c0,.06,0,.15,0,.21h0c.06-.14.22-.24.38-.24.28,0,.42.2.42.49v.74h-.16v-.66c0-.25-.07-.42-.3-.42-.17,0-.34.15-.34.47v.61h-.16v-.94c0-.06,0-.18,0-.26h.15Z"/>
          <path class="cls-25" d="m349.17,65.9c-.05-.1-.15-.17-.27-.17-.12,0-.23.05-.23.19,0,.11.08.16.26.2.26.06.38.16.38.35,0,.27-.21.37-.42.37-.17,0-.34-.07-.44-.23l.13-.1c.06.1.18.19.31.19.14,0,.26-.05.26-.21,0-.13-.12-.18-.33-.23-.13-.03-.32-.09-.32-.32,0-.24.19-.35.4-.35.15,0,.32.08.39.22l-.12.1Z"/>
          <path class="cls-25" d="m350.01,65.77h-.31v.7c0,.18.07.22.17.22.04,0,.1-.02.14-.04v.15s-.11.04-.18.04c-.12,0-.28-.06-.28-.32v-.75h-.23v-.15h.23v-.34h.16v.34h.31v.15Z"/>
          <path class="cls-25" d="m350.14,65.62h.15c0,.06,0,.15,0,.21h0c.06-.14.2-.24.35-.24.04,0,.07,0,.11.01l-.02.16s-.07-.02-.11-.02c-.17,0-.32.13-.32.45v.61h-.16v-.94c0-.06,0-.18,0-.26Z"/>
          <path class="cls-25" d="m351.7,66.82c0-.06,0-.15,0-.21h0c-.06.14-.22.24-.38.24-.28,0-.42-.2-.42-.49v-.74h.16v.66c0,.25.07.42.3.42.17,0,.34-.15.34-.47v-.61h.16v.94c0,.06,0,.18,0,.26h-.15Z"/>
          <path class="cls-25" d="m352.54,66.63h0l.34-1.01h.18l-.55,1.51c-.07.18-.16.3-.35.3-.05,0-.1,0-.14-.02l.02-.16s.08.02.12.02c.11,0,.17-.08.21-.21l.09-.25-.47-1.2h.18l.38,1.01Z"/>
          <path class="cls-25" d="m354.21,66.26h-.92c0,.24.18.44.4.44.17,0,.29-.1.35-.21l.12.1c-.13.18-.29.25-.48.25-.33,0-.57-.27-.57-.63s.24-.63.56-.63c.35,0,.53.27.53.59,0,.02,0,.05,0,.08Zm-.16-.14c0-.23-.14-.39-.37-.39-.22,0-.37.19-.39.39h.75Z"/>
          <path class="cls-25" d="m354.59,65.62c0,.06,0,.15,0,.21h0c.06-.14.22-.24.38-.24.28,0,.42.2.42.49v.74h-.16v-.66c0-.25-.07-.42-.3-.42-.17,0-.34.15-.34.47v.61h-.16v-.94c0-.06,0-.18,0-.26h.15Z"/>
          <path class="cls-25" d="m356.2,66.85c-.35,0-.57-.28-.57-.63s.23-.63.57-.63c.16,0,.32.08.42.24h0v-.95h.16v1.94h-.16v-.2h0c-.09.15-.26.23-.42.23Zm.02-.15c.25,0,.43-.21.43-.48s-.18-.48-.43-.48c-.27,0-.42.22-.42.48s.15.48.42.48Z"/>
          <path class="cls-25" d="m357.61,66.85c-.34,0-.59-.27-.59-.63s.25-.63.59-.63.59.27.59.63-.25.63-.59.63Zm0-1.11c-.26,0-.42.22-.42.48s.16.48.42.48.42-.21.42-.48-.16-.48-.42-.48Z"/>
          <path class="cls-25" d="m359.92,66.26h-.92c0,.24.18.44.4.44.17,0,.29-.1.35-.21l.12.1c-.13.18-.29.25-.48.25-.33,0-.57-.27-.57-.63s.24-.63.56-.63c.35,0,.53.27.53.59,0,.02,0,.05,0,.08Zm-.16-.14c0-.23-.14-.39-.37-.39-.22,0-.37.19-.39.39h.75Z"/>
          <path class="cls-25" d="m360.33,66.82h-.16v-1.94h.16v1.94Z"/>
          <path class="cls-25" d="m361.92,65.89c-.05-.09-.16-.16-.28-.16-.26,0-.42.21-.42.48s.16.48.42.48c.14,0,.24-.06.3-.16l.12.1c-.09.13-.23.21-.42.21-.36,0-.59-.27-.59-.63s.23-.63.59-.63c.15,0,.32.07.41.21l-.13.1Z"/>
          <path class="cls-25" d="m362.89,66.04c0-.21-.1-.31-.3-.31-.13,0-.25.06-.33.14l-.09-.12c.09-.1.25-.17.44-.17.24,0,.43.14.43.44v.53c0,.09,0,.2.02.27h-.14c0-.06-.02-.13-.02-.19h0c-.1.16-.22.23-.4.23-.17,0-.38-.1-.38-.36,0-.37.38-.4.78-.4v-.04Zm-.05.17c-.26,0-.57.03-.57.26,0,.17.13.23.26.23.23,0,.35-.18.35-.4v-.09h-.05Z"/>
          <path class="cls-25" d="m363.87,65.59c.12,0,.27.05.34.25.08-.16.21-.25.39-.25.28,0,.42.2.42.49v.74h-.16v-.66c0-.25-.08-.42-.29-.42-.23,0-.31.22-.31.45v.64h-.16v-.7c0-.23-.05-.38-.27-.38-.15,0-.32.15-.32.47v.61h-.16v-.94c0-.06,0-.18,0-.26h.15c0,.06,0,.15,0,.21h0c.06-.14.21-.24.36-.24Z"/>
          <path class="cls-25" d="m365.41,65.28c-.06,0-.11-.05-.11-.12s.06-.12.11-.12.11.05.11.12-.06.12-.11.12Zm.08,1.54h-.16v-1.2h.16v1.2Z"/>
          <path class="cls-25" d="m365.95,65.62c0,.06,0,.15,0,.21h0c.06-.14.22-.24.38-.24.28,0,.42.2.42.49v.74h-.16v-.66c0-.25-.07-.42-.3-.42-.17,0-.34.15-.34.47v.61h-.16v-.94c0-.06,0-.18,0-.26h.15Z"/>
          <path class="cls-25" d="m367.58,66.85c-.34,0-.59-.27-.59-.63s.25-.63.59-.63.59.27.59.63-.25.63-.59.63Zm0-1.11c-.26,0-.42.22-.42.48s.16.48.42.48.42-.21.42-.48-.16-.48-.42-.48Z"/>
        </g>
      </g>
    </g>
  </g>
</svg>