<?xml version="1.0" encoding="UTF-8"?>
<svg id="Capa_2" data-name="Capa 2" xmlns="http://www.w3.org/2000/svg" viewBox="0 0 230.6 261.52">
  <defs>
    <style>
      .cls-1 {
        font-family: CenturyGothic, 'Century Gothic';
        font-size: 11.26px;
        letter-spacing: .4em;
      }

      .cls-1, .cls-2, .cls-3 {
        fill: #3b0e1d;
      }

      .cls-2 {
        fill-rule: evenodd;
      }

      .cls-2, .cls-3 {
        stroke-width: 0px;
      }
    </style>
  </defs>
  <g id="Capa_1-2" data-name="Capa 1">
    <g>
      <path class="cls-2" d="m195.6,201.92l-84.09-29.12-84.09,29.12,5.21-30.56c8.08,1.95,16.61,2.52,24.83,2.26,28.95-.91,59.43-11.93,84.44-25.98,3.29-1.85,6.54-3.78,9.76-5.79l36.04,13.77,7.9,46.29h0Zm-154.99-48.32c6.19,1.26,12.63,1.5,18.87.97,17.11-1.47,34.81-6.73,50.68-13.12,6.28-2.53,12.49-5.32,18.57-8.36l-17.22-6.58-70.9,27.09Z"/>
      <path class="cls-2" d="m180.1,149.36l-24.98-9.73c7.39-4.82,14.54-10.08,21.28-15.77l3.71,25.49h0Zm-47.24-18.39c3.92-2.06,7.79-4.22,11.57-6.48,7.69-4.6,15.45-9.81,22.4-15.64l-55.32-25.1-63.23,28.69-5.37,36.92,68.59-26.7,21.35,8.31Z"/>
      <polygon class="cls-2" points="166.36 103.74 111.51 79.08 56.66 103.74 60.6 73.73 111.51 47.57 162.42 73.73 166.36 103.74"/>
      <path class="cls-2" d="m154.82,65.2l-43.31-23.08-43.31,23.08,2.69-24.32c2.33-1.67,8.26-10.18,9.56-12.76,3.03-6.03,6.86-13.63,6.86-13.63L111.51,0l24.2,14.48s3.82,7.6,6.86,13.63c1.3,2.58,7.23,11.09,9.56,12.76l2.69,24.32Z"/>
      <polygon class="cls-2" points="40.7 201.34 111.51 176.55 182.32 201.34 40.7 201.34"/>
      <path class="cls-2" d="m200.39,52.76l-1.85-26.2s3.58,1.29,7.48,4.52l1.04,3.65c.37,1.56-.53,4.97-1.01,6.43-1.26,3.85-3.31,7.81-5.66,11.59Z"/>
      <path class="cls-2" d="m66.47,44.1c-.19.13-.37.26-.56.39-9.7,6.36-36.56,25.62-52.33,53.33-19.5,34.27,6.78,62.07,46.07,58.7,39.29-3.37,88.75-27.81,112.49-49.72.29-.27.58-.54.85-.82h.02s0-.01,0-.02c.15-.15.3-.31.45-.46,1.68-1.53,7.41-6.06,7.41-6.06l-11.19-16.35c9.9-4.79,18.54-10.45,25.13-18.93,16.62-21.37,14.19-29.96,14.19-29.96,21.86,19.92-1.69,73.38-10.98,93.1l-10.48-16.37c-12.55,12.67-28.34,24.75-46.61,35-58.11,32.63-119.17,34.54-136.38,4.27-15.98-28.11,11.46-74.07,61.97-106.62l-.05.52Z"/>
      <text class="cls-1" transform="translate(15.06 258.07)"><tspan x="0" y="0">GRUPO EMPRESARIAL</tspan></text>
      <g>
        <path class="cls-2" d="m1.27,244.01v-32.89h9.1v32.89H1.27Zm25.91,0h-8.32v-32.89h8.68s14.22,19.6,14.88,21.04c-.07-1.52,0-21.04,0-21.04h8.72v32.89h-8.64s-14.7-19.63-15.34-21.04m32.29,21.04v-32.89h6.88c5.13,0,8.75.24,10.88.72,2.13.48,3.99,1.28,5.6,2.4,2.09,1.46,3.68,3.32,4.76,5.58,1.09,2.27,1.62,4.86,1.62,7.77s-.54,5.49-1.62,7.76c-1.08,2.27-2.66,4.13-4.76,5.59-1.59,1.1-3.41,1.89-5.46,2.37-2.04.47-5.21.71-9.51.71h-8.4Zm8.91-7.36h1.51c3.53,0,6.12-.72,7.74-2.17,1.62-1.44,2.43-3.73,2.43-6.88s-.81-5.44-2.43-6.91c-1.62-1.46-4.21-2.2-7.74-2.2h-1.51v18.17h0Zm27.71,7.36v-32.89h20.23v7.22h-11.45v5.7h10.8v7.04h-10.8v5.56h11.45v7.36h-20.23Zm30.5-10.62c1.34,1.51,2.66,2.64,3.96,3.39,1.3.74,2.59,1.12,3.89,1.12,1.2,0,2.19-.32,2.96-.97.78-.64,1.16-1.46,1.16-2.44,0-1.09-.33-1.93-1-2.52-.67-.59-2.18-1.2-4.53-1.83-3.23-.87-5.53-2-6.87-3.39-1.34-1.39-2.01-3.3-2.01-5.73,0-3.15,1.06-5.71,3.17-7.7,2.11-1.98,4.86-2.97,8.22-2.97,1.82,0,3.55.25,5.18.73,1.63.49,3.18,1.23,4.64,2.22l-2.82,6.44c-1.02-.87-2.07-1.52-3.15-1.96-1.07-.44-2.13-.66-3.19-.66s-1.95.26-2.63.77c-.68.51-1.02,1.18-1.02,1.99s.29,1.48.89,1.98c.59.49,1.74.97,3.43,1.41l.41.11c3.67.99,6.09,2.07,7.24,3.26.79.8,1.38,1.78,1.79,2.91.41,1.13.61,2.38.61,3.76,0,3.49-1.15,6.29-3.45,8.41-2.3,2.12-5.37,3.18-9.2,3.18-2.3,0-4.4-.39-6.29-1.16-1.89-.78-3.7-2-5.44-3.66l4.06-6.67h0Zm51.22-20.97v9.8c-1.23-1.36-2.46-2.36-3.69-3-1.22-.64-2.54-.96-3.93-.96-2.59,0-4.68.88-6.28,2.64-1.6,1.76-2.4,4.05-2.4,6.88,0,2.64.82,4.82,2.45,6.55,1.63,1.74,3.71,2.61,6.23,2.61,1.39,0,2.71-.31,3.93-.95,1.22-.63,2.45-1.63,3.69-3v9.8c-1.42.69-2.85,1.21-4.26,1.56-1.42.34-2.84.51-4.29.51-1.8,0-3.46-.21-4.99-.64-1.52-.43-2.93-1.08-4.2-1.95-2.46-1.65-4.34-3.72-5.63-6.22-1.29-2.51-1.94-5.32-1.94-8.45,0-2.51.41-4.8,1.23-6.86.82-2.06,2.06-3.92,3.7-5.6,1.56-1.6,3.32-2.8,5.29-3.6,1.96-.79,4.14-1.19,6.54-1.19,1.45,0,2.87.17,4.29.51,1.41.34,2.83.87,4.26,1.56h0Zm40.22,15.22c0,2.37-.44,4.58-1.31,6.65-.87,2.07-2.14,3.92-3.81,5.55-1.69,1.62-3.61,2.86-5.77,3.74-2.16.87-4.41,1.31-6.73,1.31s-4.63-.44-6.78-1.31c-2.16-.88-4.05-2.12-5.69-3.74-1.7-1.63-2.99-3.49-3.87-5.57-.88-2.08-1.32-4.28-1.32-6.62s.44-4.56,1.32-6.64c.89-2.07,2.17-3.92,3.87-5.56,1.64-1.62,3.53-2.86,5.69-3.74,2.16-.87,4.42-1.31,6.78-1.31s4.6.44,6.77,1.31c2.17.88,4.08,2.12,5.73,3.74,1.65,1.62,2.92,3.47,3.8,5.55.88,2.08,1.32,4.29,1.32,6.65h0Zm-17.64,9.66c2.49,0,4.56-.91,6.19-2.74,1.63-1.83,2.45-4.14,2.45-6.92s-.82-5.05-2.48-6.9c-1.65-1.84-3.71-2.76-6.16-2.76s-4.56.92-6.19,2.75c-1.63,1.83-2.45,4.14-2.45,6.91s.8,5.13,2.41,6.94c1.61,1.82,3.69,2.72,6.23,2.72Z"/>
        <path class="cls-3" d="m223.92,202.67c.93,0,1.8.17,2.63.51.82.34,1.55.84,2.19,1.5.6.62,1.06,1.33,1.38,2.13.32.8.48,1.65.48,2.55s-.17,1.79-.5,2.6c-.34.81-.83,1.52-1.47,2.14-.65.63-1.38,1.11-2.19,1.44-.81.33-1.65.5-2.51.5s-1.75-.17-2.56-.52c-.81-.35-1.53-.85-2.17-1.51-.63-.64-1.1-1.36-1.43-2.16s-.5-1.62-.5-2.49.18-1.76.53-2.59c.35-.83.85-1.56,1.51-2.21.63-.62,1.33-1.09,2.12-1.41.79-.32,1.62-.48,2.51-.48Zm0,1.22c-.74,0-1.43.13-2.08.39-.64.26-1.22.64-1.74,1.14-.54.54-.95,1.14-1.23,1.81-.28.67-.42,1.38-.42,2.12s.13,1.4.39,2.04.65,1.22,1.16,1.74c.52.54,1.11.95,1.78,1.23.67.29,1.37.43,2.1.43s1.42-.14,2.08-.41c.67-.27,1.26-.66,1.79-1.16.53-.51.93-1.09,1.2-1.75.28-.66.41-1.37.41-2.12s-.13-1.43-.39-2.08c-.26-.65-.65-1.23-1.15-1.73-.53-.54-1.13-.95-1.8-1.23-.67-.28-1.37-.42-2.13-.42Zm-2.82,1.65h2.94c1.04,0,1.82.18,2.36.54.54.36.81.88.81,1.58,0,.48-.14.9-.41,1.24-.27.35-.66.59-1.14.73l1.63,3.23h-2.22l-1.38-2.91h-.58v2.91h-2.01v-7.32Zm2.01,1.26v1.96h.71c.44,0,.77-.08.99-.24.22-.16.33-.39.33-.71,0-.35-.11-.61-.34-.77s-.59-.24-1.09-.24h-.6Z"/>
      </g>
    </g>
  </g>
</svg>